<svg width="115" height="115" xmlns="http://www.w3.org/2000/svg"><g fill="none" fill-rule="evenodd"><path d="M0 0h115v115H0z"/><g fill-rule="nonzero"><path fill="#E5F6ED" d="M23.274 61.512h12.359V88.78H23.274zM62.706 38.854l-1.814-6.523 6.228-4.512 5.444 4.512-1.373 6.425z"/><path d="M73.921 59.354l-1.226-2.246c.548-.3 13.413-7.59 13.413-25.754 0-6.695-1.47-11.152-2.121-12.796H49.853c-.647 1.693-2.13 6.415-2.13 14.077 0 16.961 13.276 24.398 13.41 24.47l-1.234 2.25c-.602-.33-14.744-8.256-14.744-26.72 0-10.42 2.585-15.71 2.695-15.929.217-.433.66-.706 1.144-.706h35.833c.485 0 .928.275 1.145.708.11.22 2.694 5.493 2.694 14.648 0 19.731-14.14 27.67-14.745 28v-.002zM57.953 90.226a1.283 1.283 0 0 0-1.281 1.28v2.57a1.281 1.281 0 0 0 1.28 1.28H75.87c.707 0 1.28-.573 1.28-1.28v-2.57c0-.706-.573-1.28-1.28-1.28H57.953zm17.916 7.68H57.953a3.843 3.843 0 0 1-3.84-3.83v-2.57a3.843 3.843 0 0 1 3.84-3.838h17.916a3.843 3.843 0 0 1 3.84 3.839v2.57a3.843 3.843 0 0 1-3.84 3.839v-.01zM73.31 67.191h5.12v-2.56h-5.12zM41.325 62.071h-5.128v-2.55h4.589l6.032-6.032 1.809 1.808-6.4 6.4c-.239.24-.564.375-.904.374" fill="#2dc44d"/><path d="M24.678 87.668h10.238V62.07H24.678v25.597zm11.52 2.55H23.398a1.279 1.279 0 0 1-1.28-1.28V60.793a1.281 1.281 0 0 1 1.28-1.279h12.798c.707 0 1.28.573 1.28 1.279v28.155a1.277 1.277 0 0 1-1.28 1.279v-.008z" fill="#2dc44d"/><path d="M17 60.792a1.275 1.275 0 0 0 1.279 1.28h5.12V59.52h-5.12A1.275 1.275 0 0 0 17 60.792zm0 28.155a1.275 1.275 0 0 0 1.279 1.279h5.12v-2.55h-5.12A1.275 1.275 0 0 0 17 88.945zM29.798 85.108h2.558v-2.56h-2.558zM78.43 74.87V72.3a2.56 2.56 0 1 0 0-5.118v-2.55a5.12 5.12 0 0 1 0 10.238M73.31 74.87h5.12v-2.56h-5.12z" fill="#2dc44d"/><path d="M75.87 67.201v-2.55a2.56 2.56 0 1 0 0-5.118H56.671v-2.58h19.197a5.12 5.12 0 0 1 0 10.238M74.59 90.226H48.994c-.198 0-.394-.046-.571-.134l-4.85-2.424h-3.53v-2.56h3.833c.198 0 .393.045.57.133l4.85 2.427H74.59a2.56 2.56 0 0 0 0-5.12v-2.56a5.12 5.12 0 0 1 0 10.238" fill="#2dc44d"/><path d="M75.87 82.548H73.3v-2.56h2.55a2.56 2.56 0 1 0 0-5.119v-2.568a5.12 5.12 0 0 1 0 10.239l.018.008zm-8.96-46.072c.232 0 .46.063.66.183l3.138 1.885-1.15-2.872a1.281 1.281 0 0 1 .422-1.499l2.048-1.536h-2.55c-.523 0-.994-.319-1.189-.804l-1.373-3.429-1.373 3.43a1.285 1.285 0 0 1-1.189.803h-2.55l2.048 1.536c.463.347.635.962.42 1.5l-1.15 2.871 3.139-1.885c.199-.12.427-.182.659-.183h-.01zm6.391 6.4c-.232 0-.46-.064-.659-.185l-5.74-3.443-5.74 3.443a1.281 1.281 0 0 1-1.848-1.57l2.197-5.492-4.327-3.249a1.279 1.279 0 0 1 .769-2.303h5.54l2.236-5.595a1.281 1.281 0 0 1 2.378 0l2.238 5.595h5.532a1.279 1.279 0 0 1 .76 2.303l-4.334 3.251 2.195 5.493a1.281 1.281 0 0 1-1.197 1.752zm3.657 14.736l-2.195-1.318c1.481-2.456 4.482-4.09 7.955-5.98 6.387-3.474 13.626-7.413 13.626-17.677v-2.55h-2.558v2.55h-2.55v-3.84a1.277 1.277 0 0 1 1.279-1.28h5.112a1.279 1.279 0 0 1 1.28 1.28v3.84c0 11.786-8.297 16.3-14.963 19.928-3.139 1.71-5.86 3.187-6.976 5.047h-.01zm-20.102 0c-1.114-1.86-3.83-3.335-6.976-5.047-6.67-3.628-14.962-8.142-14.962-19.928v-3.84c0-.707.573-1.28 1.28-1.28h5.127c.707 0 1.28.573 1.28 1.28v3.84h-2.55v-2.55h-2.551v2.55c0 10.264 7.239 14.203 13.624 17.677 3.476 1.89 6.474 3.532 7.949 5.98l-2.22 1.318z" fill="#2dc44d"/></g></g></svg>
