<svg width="115" height="115" xmlns="http://www.w3.org/2000/svg"><g fill="none" fill-rule="evenodd"><path d="M0 0h115v115H0z"/><g transform="translate(18 18)" fill-rule="nonzero"><path fill="#E5F6ED" d="M20.945 54.338L20.815 77H6V2h26v52.208zM28 70h6v6h-6z"/><circle fill="#E5F6ED" cx="56" cy="51" r="4"/><path fill="#2dc44d" d="M0 76h79v3H0z"/><path fill="#2dc44d" d="M20 79V53h20.87v2.56H22.531v20.88H54V79z"/><path fill="#2dc44d" d="M5 79V0h29v54.068h-2.529V2.54H7.53v73.92h13.234V79zM58.237 79v-2.538H71.47V22.538H47.53v16.606H45V20h29v59zM65 8h3v12h-3z"/><path fill="#2dc44d" d="M10 7h19v3H10zM10 13h19v3H10zM10 20h19v3H10zM10 27h19v3H10zM10 33h19v3H10zM10 40h19v3H10zM10 46h19v3H10zM10 53h3v3h-3zM10 60h3v3h-3zM10 66h3v3h-3zM15 53h3v3h-3zM15 60h3v3h-3zM15 66h3v3h-3zM49 26h3v3h-3z"/><path fill="#2dc44d" d="M50 27h3v3h-3zM58 26h3v3h-3z"/><path fill="#2dc44d" d="M58 27h3v3h-3zM66 26h3v3h-3z"/><path fill="#2dc44d" d="M66 27h3v3h-3zM49 33h3v3h-3z"/><path fill="#2dc44d" d="M50 33h3v3h-3zM58 33h3v3h-3z"/><path fill="#2dc44d" d="M58 33h3v3h-3zM66 33h3v3h-3z"/><path fill="#2dc44d" d="M66 33h3v3h-3zM27 79V68h9v11h-9zm2.496-2.584h4.031v-5.84h-4.031v5.84zM50.438 21v-8.424H32V10h21v11zM55.205 72.322c-.416-.355-10.204-8.824-10.204-20.927-.052-4.053 2.032-7.821 5.457-9.863a10.792 10.792 0 0 1 11.084 0c3.425 2.042 5.51 5.81 5.457 9.863 0 12.101-9.78 20.572-10.202 20.927L56 73l-.796-.678zm.796-29.632c-4.7.005-8.51 3.9-8.515 8.705 0 8.617 5.765 15.425 8.246 17.952l.27.277.271-.277c2.478-2.527 8.246-9.335 8.246-17.952-.004-4.808-3.816-8.703-8.518-8.705z"/><path d="M56 57a6 6 0 1 1 6-6 6.015 6.015 0 0 1-6 6zm0-9.564a3.571 3.571 0 1 0 0 7.143 3.571 3.571 0 0 0 0-7.143zM45 68h3v9h-3z" fill="#2dc44d"/></g></g></svg>
