<svg width="115" height="115" xmlns="http://www.w3.org/2000/svg"><g fill="none" fill-rule="evenodd"><path d="M0 0h115v115H0z"/><g fill-rule="nonzero"><path fill="#E5F6ED" d="M46.747 76.943h20.455v6.918H46.747zM23.145 47.79l34.813.098V29.112l-34.616.198L17.54 38.4z"/><path d="M58.54 48.936H22.59L16 38.285l6.589-10.653H58.54v21.304zm-34.533-2.57h31.98V30.198h-31.98l-5.002 8.088 5.002 8.082z" fill="#2dc44d"/><path fill="#2dc44d" d="M64.575 73.025h-2.553v-55.46h-9.097v7.13h-2.553V15h14.203zM50.372 51.61h2.553v21.415h-2.553zM68.943 84.374h-22.94v-8.076h22.94v8.076zm-20.388-2.57h17.837v-2.94H48.555v2.94z"/><path fill="#2dc44d" d="M92.358 40.228H64.085v-2.564h26.853l5.004-8.09-5.004-8.087H64.085v-2.564h28.273l6.589 10.651z"/><path fill="#2dc44d" d="M64.085 28.294h20.97v2.565h-20.97zM30.686 37.002h20.193v2.565H30.686zM72.232 81.801h23.301v2.565H72.232zM19.416 81.801h23.301v2.565H19.416zM34.173 88.873h23.301v2.565H34.173zM45.449 96.34h12.025v2.565H45.449zM62.134 88.873h14.757v2.565H62.134z"/></g></g></svg>
