<svg width="115" height="115" xmlns="http://www.w3.org/2000/svg"><g fill="none" fill-rule="evenodd"><path d="M0 0h115v115H0z"/><g transform="translate(13 16)" fill-rule="nonzero"><path d="M44.81 73.241H33.988c-11.05 0-20.01-8.97-20.01-20.036v-24.22h-2.966v26.82a20.05 20.05 0 0 0 5.86 14.17 19.996 19.996 0 0 0 14.151 5.87h10.822a19.942 19.942 0 0 0 14.6-6.34 19.897 19.897 0 0 1-11.635 3.736z" fill="#E5F6ED"/><path d="M56.041 29.237h-2.223v-4.641c0-9.613-7.783-17.406-17.383-17.406-9.6 0-17.383 7.793-17.383 17.406v4.64H16.83v-4.64c0-10.843 8.778-19.632 19.606-19.632 10.828 0 19.606 8.79 19.606 19.632v4.64z" fill="#2dc44d"/><path d="M41.845 76.957H31.023c-11.66-.013-21.108-9.474-21.121-21.15V27.88h53.066v27.928c-.014 11.675-9.463 21.136-21.123 21.15zm-29.72-46.85v25.708c.012 10.447 8.466 18.912 18.898 18.924h10.822c10.433-.011 18.888-8.477 18.9-18.924V30.106h-48.62z" fill="#2dc44d"/><path d="M41.845 77.353H31.023C19.146 77.34 9.521 67.701 9.506 55.808V27.484h53.858v28.324c-.014 11.894-9.64 21.532-21.519 21.545zM10.298 28.268V55.8c.008 11.46 9.281 20.748 20.725 20.761h10.822c11.441-.013 20.714-9.297 20.728-20.753V28.276l-52.275-.008zm31.547 46.86H31.023c-10.65-.014-19.28-8.656-19.293-19.32V29.71h49.41v26.105c-.017 10.663-8.647 19.3-19.295 19.312zM12.521 30.501v25.313c.012 10.228 8.289 18.516 18.502 18.528h10.822c10.214-.012 18.491-8.3 18.504-18.528V30.502H12.521z" fill="#2dc44d"/><path d="M36.858 63.221v-5.29a5.745 5.745 0 0 1 .244-10.185 6.145 6.145 0 0 0-.977-.032 5.747 5.747 0 0 0-2.467 10.777v5.287a2.773 2.773 0 0 0 1.727 2.586 2.767 2.767 0 0 0 3.038-.647 2.783 2.783 0 0 1-1.565-2.496z" fill="#E5F6ED"/><path d="M36.435 67.676a3.895 3.895 0 0 1-3.889-3.898v-4.669a6.868 6.868 0 0 1-2.655-7.69 6.855 6.855 0 0 1 6.544-4.824c3.001 0 5.653 1.955 6.545 4.824a6.868 6.868 0 0 1-2.656 7.69v4.669a3.895 3.895 0 0 1-3.889 3.898zm0-18.856h-.251a4.701 4.701 0 0 0-4.381 4.555 4.64 4.64 0 0 0 2.393 4.13l.574.319v5.942a1.667 1.667 0 1 0 3.33 0v-5.93l.574-.32a4.641 4.641 0 0 0-2.239-8.696z" fill="#2dc44d"/><ellipse fill="#E5F6ED" transform="rotate(-45 60.888 31.411)" cx="60.888" cy="31.411" rx="16.827" ry="16.85"/><path d="M60.887 49.372a17.938 17.938 0 0 1-16.573-11.089 17.98 17.98 0 0 1 3.89-19.576 17.921 17.921 0 0 1 19.55-3.892 17.963 17.963 0 0 1 11.072 16.597c-.012 9.915-8.037 17.95-17.939 17.96zm0-33.697c-8.679 0-15.715 7.046-15.715 15.737 0 8.69 7.036 15.736 15.715 15.736 8.68 0 15.716-7.045 15.716-15.736-.01-8.687-7.04-15.727-15.716-15.737z" fill="#2dc44d"/><path fill="#2dc44d" d="M57.936 37.829l-4.978-4.985 1.572-1.573 3.406 3.409 9.73-9.743 1.573 1.574zM75.665 5.714l3.347-1.182-3.347-1.18L74.485 0l-1.18 3.351-3.346 1.18 3.346 1.183 1.18 3.352zM12.35 79.534l2.384-.842-2.383-.842-.839-2.386-.84 2.386-2.384.842 2.383.842.841 2.387z"/><path fill="#2dc44d" d="M11.354 17.838l1.673-.592-1.673-.59-.59-1.676-.59 1.676-1.672.59 1.673.592.59 1.676z"/><ellipse fill="#E5F6ED" cx="85.282" cy="38.253" rx="3.446" ry="3.45"/><path d="M85.282 42.818a4.553 4.553 0 0 1-4.549-4.552 4.553 4.553 0 0 1 4.543-4.559 4.552 4.552 0 0 1 4.556 4.546 4.568 4.568 0 0 1-4.55 4.565zm0-6.902a2.341 2.341 0 0 0-1.654 3.993 2.334 2.334 0 0 0 3.988-1.656 2.34 2.34 0 0 0-2.334-2.337zM5.339 27.486l1.778 3.086-1.778 3.088H1.78L0 30.572l1.78-3.086zM8.583 66.662a1.655 1.655 0 1 1-1.66-1.654 1.65 1.65 0 0 1 1.66 1.654zM77.002 72.05l2.558 3.133 1.432-3.786z" fill="#2dc44d"/></g></g></svg>
